HIERARCHY
ROOT Hips
{
	OFFSET 0.00000 0.00000 0.00000
	CHANNELS 6 Xposition Yposition Zposition Zrotation Yrotation Xrotation 
	JOINT LHipJoint
	{
		OFFSET 0 0 0
		CHANNELS 3 Zrotation Yrotation Xrotation
		JOINT LeftHip
		{
			OFFSET 3.13874 -1.57224 1.49786
			CHANNELS 3 Zrotation Yrotation Xrotation
			JOINT LeftKnee
			{
				OFFSET 2.10955 -5.79594 0.00000
				CHANNELS 3 Zrotation Yrotation Xrotation
				JOINT LeftAnkle
				{
					OFFSET 2.41843 -6.64458 0.00000
					CHANNELS 3 Zrotation Yrotation Xrotation
					JOINT LeftToe
					{
						OFFSET 0.04713 -0.12948 1.66229
						CHANNELS 3 Zrotation Yrotation Xrotation
						End Site
						{
							OFFSET 0.00000 -0.00000 0.85167
						}
					}
				}
			}
		}
	}
	JOINT RHipJoint
	{
		OFFSET 0 0 0
		CHANNELS 3 Zrotation Yrotation Xrotation
		JOINT RightHip
		{
			OFFSET -3.13988 -1.57224 1.49786
			CHANNELS 3 Zrotation Yrotation Xrotation
			JOINT RightKnee
			{
				OFFSET -2.15006 -5.90725 0.00000
				CHANNELS 3 Zrotation Yrotation Xrotation
				JOINT RightAnkle
				{
					OFFSET -2.34496 -6.44273 0.00000
					CHANNELS 3 Zrotation Yrotation Xrotation
					JOINT RightToe
					{
						OFFSET -0.08699 -0.23900 1.55223
						CHANNELS 3 Zrotation Yrotation Xrotation
						End Site
						{
							OFFSET -0.00000 -0.00000 0.80281
						}
					}
				}
			}
		}
	}
	JOINT lowerback
	{
		OFFSET 0 0 0
		CHANNELS 3 Zrotation Yrotation Xrotation
		JOINT Chest
		{
			OFFSET 0.01292 1.96517 -0.16495
			CHANNELS 3 Zrotation Yrotation Xrotation
			JOINT Chest2
			{
				OFFSET 0.02122 1.88666 0.19706
				CHANNELS 3 Zrotation Yrotation Xrotation
				JOINT lowerneck
				{
					OFFSET 0 0 0
					CHANNELS 3 Zrotation Yrotation Xrotation
					JOINT Neck
					{
						OFFSET -0.01683 1.81591 0.07903
						CHANNELS 3 Zrotation Yrotation Xrotation
						JOINT Head
						{
							OFFSET 0.00815 1.74013 -0.47700
							CHANNELS 3 Zrotation Yrotation Xrotation
							End Site
							{
								OFFSET -0.00204 1.83225 -0.16933
							}
						}
					}
				}
				JOINT LeftCollar
				{
					OFFSET 0 0 0
					CHANNELS 3 Zrotation Yrotation Xrotation
					JOINT LeftShoulder
					{
						OFFSET 3.38482 1.41533 0.19802
CHANNELS 3 Zrotation Xrotation Yrotation
						JOINT LeftElbow
						{
OFFSET 0 -4.327120 0.000000
CHANNELS 3 Zrotation Xrotation Yrotation
							JOINT LeftWrist
							{
OFFSET 0 -3.285870 -0.000000
CHANNELS 3 Zrotation Xrotation Yrotation
								JOINT lhand
								{
									OFFSET 0 0 0
CHANNELS 3 Zrotation Xrotation Yrotation
									JOINT LFingers
									{
OFFSET 0 -0.433160 -0.000000
CHANNELS 3 Zrotation Xrotation Yrotation
										End Site
										{
OFFSET 0 -0.349220 -0.000000
										}
									}
								}
								JOINT LThumb
								{
OFFSET 0 0.000000 0.000000
CHANNELS 3 Zrotation Xrotation Yrotation
									End Site
									{
OFFSET 0 -0.354560 0.354560
									}
								}
							}
						}
					}
				}
				JOINT RightCollar
				{
					OFFSET 0 0 0
					CHANNELS 3 Zrotation Yrotation Xrotation
					JOINT RightShoulder
					{
						OFFSET -3.09725 1.62858 -0.14144
CHANNELS 3 Zrotation Xrotation Yrotation
						JOINT RightElbow
						{
OFFSET 0 -4.291040 0.000000
CHANNELS 3 Zrotation Xrotation Yrotation
							JOINT RightWrist
							{
OFFSET 0 -3.227200 -0.000000
CHANNELS 3 Zrotation Xrotation Yrotation
								JOINT rhand
								{
									OFFSET 0 0 0
CHANNELS 3 Zrotation Xrotation Yrotation
									JOINT RFingers
									{
OFFSET 0 -0.543620 -0.000000
CHANNELS 3 Zrotation Xrotation Yrotation
										End Site
										{
OFFSET 0 -0.438280 -0.000000
										}
									}
								}
								JOINT RThumb
								{
OFFSET 0 0.000000 0.000000
CHANNELS 3 Zrotation Xrotation Yrotation
									End Site
									{
OFFSET 0 -0.444970 0.444970
									}
								}
							}
						}
					}
				}
			}
		}
	}
}
MOTION
Frames: 10
Frame Time: 0.008333333333333333
6.223309 15.921743 4.037581 -167.200260 -78.325334 160.567786 0.000000 0.000000 0.000000 -37.409854 -12.623701 11.525508 0.390309 4.011858 11.109985 3.063367 -0.180677 -33.155864 5.209409 -13.615646 -41.719410 0.000000 0.000000 0.000000 -12.990934 21.077380 -62.346128 -1.632201 -8.044225 22.853309 8.871794 -46.331988 -8.368863 -0.207328 -2.857104 7.888176 1.444090 2.426660 18.680514 2.414944 4.006163 -5.724693 0.661510 1.795972 -17.331942 -3.428141 -5.278410 -14.284823 1.110154 -8.500590 33.464116 -0.437389 -4.420179 13.975376 0.000000 0.000000 0.000000 49.257696 -5.388458 -5.820596 56.022593 -55.152888 31.053668 26.764850 15.531756 -22.627381 0.000000 0.000000 0.000000 -7.125000 0.000000 0.000000 -2.385369 54.989288 0.585399 0.000000 0.000000 0.000000 -30.874430 15.966844 13.326486 -70.854355 -58.568638 -43.499125 -33.668042 14.439404 1.213782 0.000000 0.000000 0.000000 7.125000 0.000000 0.000000 -5.671670 31.407491 -1.893168
6.194920 15.920823 4.048757 -167.645162 -78.587151 160.743040 0.000000 0.000000 0.000000 -37.658875 -12.254011 11.893513 0.375285 3.934703 10.893124 3.010734 -0.204190 -32.859096 5.221635 -13.629021 -41.771458 0.000000 0.000000 0.000000 -5.316610 18.252178 -64.739128 -4.000589 -12.140774 36.259501 4.954248 -44.057998 11.118945 -0.045220 1.322600 -3.637486 1.324392 2.479790 18.671253 2.503469 4.063899 -5.841881 0.812831 1.838959 -17.491735 -3.643971 -5.462212 -13.981885 1.205619 -8.800403 33.601463 -0.407150 -4.578589 13.997212 0.000000 0.000000 0.000000 50.252166 -5.502341 -5.590513 59.731303 -56.236083 34.118030 26.312528 15.026155 -23.299087 0.000000 0.000000 0.000000 -7.125000 0.000000 0.000000 -3.073540 55.614068 0.801475 0.000000 0.000000 0.000000 -30.379777 16.984713 13.685010 -71.045383 -58.597933 -43.662081 -33.197328 14.436239 1.118664 0.000000 0.000000 0.000000 7.125000 0.000000 0.000000 -5.290549 31.290481 -1.779864
6.154419 15.916124 4.046310 -169.213798 -79.105240 161.956888 0.000000 0.000000 0.000000 -38.100721 -11.769241 12.034721 0.386052 3.989818 11.048059 2.890208 0.217869 -32.315499 5.493329 -13.918716 -42.912791 0.000000 0.000000 0.000000 -0.168428 16.768394 -65.958941 -7.540575 -15.742377 50.840772 4.259011 -43.007101 12.976711 -0.010008 0.617582 -1.697305 0.788556 2.514905 18.644778 2.532916 3.982596 -5.951044 1.177847 1.863912 -17.653615 -3.829996 -5.690582 -13.684618 1.221310 -9.161037 33.802655 -0.425635 -4.772197 14.045536 0.000000 0.000000 0.000000 50.981432 -5.814720 -5.122917 63.334484 -57.132607 37.129567 24.776497 14.065344 -23.217675 0.000000 0.000000 0.000000 -7.125000 0.000000 0.000000 -4.683762 55.207685 1.174704 0.000000 0.000000 0.000000 -29.940074 17.604286 14.028950 -70.412782 -58.499376 -43.122444 -33.175966 14.109922 0.964623 0.000000 0.000000 0.000000 7.125000 0.000000 0.000000 -5.264628 31.106988 -1.794401
6.101223 15.907073 4.026144 -169.850957 -79.712431 162.317466 0.000000 0.000000 0.000000 -38.239164 -11.208975 12.062367 0.401672 4.068842 11.270333 2.740727 0.179377 -31.450357 5.698132 -14.128996 -43.757349 0.000000 0.000000 0.000000 4.191658 15.866505 -66.126664 -12.026346 -18.370468 66.035795 4.794210 -43.909667 11.693633 -0.018511 -0.789190 2.169286 0.348107 2.513428 18.260883 2.616810 3.871483 -5.948894 1.574868 1.873712 -17.443344 -4.088065 -5.916612 -13.619923 1.375187 -9.517396 33.945880 -0.384047 -4.943128 14.134748 0.000000 0.000000 0.000000 51.827023 -6.373041 -4.704766 66.379297 -57.781570 39.696392 23.736146 13.022331 -22.251301 0.000000 0.000000 0.000000 -7.125000 0.000000 0.000000 -5.451229 53.980166 1.205626 0.000000 0.000000 0.000000 -29.524443 17.909466 14.164057 -69.683681 -58.381431 -42.501185 -32.720113 14.350751 1.097506 0.000000 0.000000 0.000000 7.125000 0.000000 0.000000 -4.908648 31.261785 -1.654142
6.036617 15.895784 4.005450 -168.316967 -80.456799 160.744287 0.000000 0.000000 0.000000 -38.090912 -11.024905 11.993091 0.438708 4.249738 11.780290 2.593748 0.428142 -30.669841 6.074215 -14.498690 -45.276586 0.000000 0.000000 0.000000 8.448529 14.817203 -65.492636 -17.547074 -19.802722 82.789521 -3.177569 -20.479094 36.428566 -0.071754 -1.727117 4.751996 0.421713 2.392847 17.677671 2.697583 3.725547 -6.145039 1.693849 1.808436 -17.313204 -4.334109 -6.113130 -13.527232 1.369528 -9.840783 34.455186 -0.414416 -5.128392 14.373612 0.000000 0.000000 0.000000 52.659512 -6.543552 -4.839107 69.872537 -58.408898 42.662578 24.613517 12.705774 -22.281675 0.000000 0.000000 0.000000 -7.125000 0.000000 0.000000 -4.547488 54.185093 1.025490 0.000000 0.000000 0.000000 -29.193206 18.442348 14.515620 -68.993613 -58.264988 -41.913933 -32.242358 14.600868 1.378169 0.000000 0.000000 0.000000 7.125000 0.000000 0.000000 -4.540660 31.589044 -1.493465
5.963957 15.884861 3.989985 -167.628878 -81.260225 160.214738 0.000000 0.000000 0.000000 -38.312740 -11.245482 11.925175 0.476107 4.425092 12.275729 2.505495 0.467201 -30.155866 6.307862 -14.720157 -46.205168 0.000000 0.000000 0.000000 12.139442 13.700659 -64.449614 -18.763532 -19.944293 86.380170 -39.462374 45.819968 108.223808 -0.004433 -0.374224 1.028279 0.517684 2.296910 16.710738 2.732846 3.599111 -6.382459 1.750204 1.746478 -16.982728 -4.909364 -6.376763 -13.295264 1.390134 -10.193670 34.947694 -0.380239 -5.369291 14.604763 0.000000 0.000000 0.000000 53.486031 -6.898310 -4.795114 72.752705 -58.844363 45.121484 24.034474 12.510830 -22.931519 0.000000 0.000000 0.000000 -7.125000 0.000000 0.000000 -5.368930 54.754098 1.289828 0.000000 0.000000 0.000000 -28.989772 19.066873 14.828456 -68.891047 -58.247419 -41.826668 -31.853996 14.750789 1.663805 0.000000 0.000000 0.000000 7.125000 0.000000 0.000000 -4.241038 31.919915 -1.360957
5.899599 15.875908 3.979260 -165.842835 -81.855670 158.763948 0.000000 0.000000 0.000000 -38.252604 -11.538354 11.681567 0.512298 4.587651 12.736091 2.500059 -0.595775 -29.790672 6.038683 -14.465471 -45.136307 0.000000 0.000000 0.000000 15.684375 12.596157 -62.950384 -14.136813 -19.135005 72.606028 -43.601459 42.538487 -164.481259 -0.038482 -1.265677 3.480164 0.936413 2.225221 15.759670 2.826015 3.583212 -6.728237 1.655590 1.699734 -16.782446 -5.699484 -6.609216 -12.716060 1.503471 -10.454612 35.108788 -0.231059 -5.594043 14.626494 0.000000 0.000000 0.000000 53.756270 -7.304058 -4.578078 75.359711 -59.172019 47.356580 22.346045 11.713428 -22.741085 0.000000 0.000000 0.000000 -7.125000 0.000000 0.000000 -7.058644 54.221679 1.605081 0.000000 0.000000 0.000000 -28.725379 19.811958 15.120798 -69.165293 -58.294505 -42.059937 -31.743953 15.124564 2.316849 0.000000 0.000000 0.000000 7.125000 0.000000 0.000000 -4.176900 32.684201 -1.262844
5.854561 15.866833 3.972507 -166.926523 -82.256459 160.275332 0.000000 0.000000 0.000000 -38.485148 -11.679127 11.310399 0.528827 4.660084 12.941529 2.447336 -0.568250 -29.476910 6.246193 -14.662129 -45.960802 0.000000 0.000000 0.000000 17.909477 11.912471 -61.866849 -11.423818 -18.126931 64.139404 -43.657497 43.157073 -163.932135 -0.030578 -1.126714 3.097570 0.988876 2.229087 15.118638 2.748489 3.569599 -6.971057 1.560864 1.681725 -16.661339 -5.853016 -6.761646 -12.993550 1.364218 -10.604333 35.373894 -0.310919 -5.690082 14.822756 0.000000 0.000000 0.000000 54.200580 -7.170173 -4.275260 78.480376 -59.490214 50.040933 21.788441 10.854582 -21.517806 0.000000 0.000000 0.000000 -7.125000 0.000000 0.000000 -7.200606 52.843816 1.395303 0.000000 0.000000 0.000000 -28.222679 19.936310 15.351053 -69.172937 -58.295796 -42.066438 -31.695624 14.891884 2.332853 0.000000 0.000000 0.000000 7.125000 0.000000 0.000000 -4.138272 32.701990 -1.249319
5.824369 15.871958 3.973308 -168.196359 -82.471486 161.988531 0.000000 0.000000 0.000000 -38.675268 -11.800717 11.096083 0.512991 4.590543 12.744354 2.399534 -0.360601 -29.245509 6.340013 -14.749712 -46.331141 0.000000 0.000000 0.000000 18.855259 11.856001 -60.946186 -10.288586 -17.568783 60.448308 -44.301422 44.370772 -165.266303 -0.015936 -0.406055 1.116595 1.153436 2.276788 14.479902 2.797782 3.653122 -7.190442 1.521296 1.703966 -16.518308 -6.381625 -6.936607 -12.873573 1.322613 -10.706496 35.323993 -0.252584 -5.809414 14.815106 0.000000 0.000000 0.000000 54.134368 -6.754810 -3.929238 81.721041 -59.736469 52.836676 22.446388 10.630753 -21.418032 0.000000 0.000000 0.000000 -7.125000 0.000000 0.000000 -6.500397 52.861386 1.261493 0.000000 0.000000 0.000000 -28.072888 20.180608 15.750474 -69.444039 -58.341605 -42.297095 -31.412632 14.687840 2.003978 0.000000 0.000000 0.000000 7.125000 0.000000 0.000000 -3.898377 32.311509 -1.213126
5.822103 15.890386 3.984402 -170.084930 -82.532626 164.258389 0.000000 0.000000 0.000000 -38.781321 -11.791569 10.952264 0.467832 4.386412 12.166602 2.361914 -0.686764 -28.914329 6.070890 -14.496602 -45.265497 0.000000 0.000000 0.000000 18.361614 12.729440 -60.382423 -10.703628 -17.783733 61.811221 -44.199569 43.894500 -165.458610 -0.019594 -0.891060 2.449214 1.396263 2.290622 14.282128 2.784203 3.713692 -7.284651 1.358776 1.702378 -16.491322 -6.475213 -6.974890 -13.148168 1.128446 -10.631254 35.348530 -0.316393 -5.802930 14.878422 0.000000 0.000000 0.000000 54.207276 -6.417563 -3.531089 84.223776 -59.872691 54.999758 22.815774 9.812644 -21.040799 0.000000 0.000000 0.000000 -7.125000 0.000000 0.000000 -6.005774 52.534002 1.116940 0.000000 0.000000 0.000000 -28.020986 19.564536 16.253841 -68.823765 -58.235738 -41.769494 -30.999582 14.789438 1.703079 0.000000 0.000000 0.000000 7.125000 0.000000 0.000000 -3.555891 31.953548 -1.137193
